<?xml version="1.0" standalone="no"?>
<!DOCTYPE svg PUBLIC "-//W3C//DTD SVG 20010904//EN"
 "http://www.w3.org/TR/2001/REC-SVG-20010904/DTD/svg10.dtd">
<svg version="1.0" xmlns="http://www.w3.org/2000/svg"
 width="262.000000pt" height="262.000000pt" viewBox="0 0 262.000000 262.000000"
 preserveAspectRatio="xMidYMid meet">
<metadata>
Created by potrace 1.11, written by Peter Selinger 2001-2013
</metadata>
<g transform="translate(0.000000,262.000000) scale(0.100000,-0.100000)"
fill="#000000" stroke="none">
<path d="M751 2064 c-88 -32 -141 -76 -179 -149 -23 -43 -27 -63 -27 -135 0
-75 3 -91 27 -131 50 -85 138 -143 230 -152 38 -3 43 -7 46 -30 4 -31 -5 -33
-53 -10 -19 9 -38 14 -41 10 -6 -6 13 -167 21 -175 2 -3 20 7 39 22 19 14 37
26 40 26 3 0 -11 -34 -30 -75 -36 -75 -37 -95 -5 -95 14 0 23 16 37 63 l18 62
8 -55 c4 -30 22 -161 38 -290 17 -129 34 -238 38 -242 14 -14 62 4 62 23 0 10
-16 140 -35 289 -19 149 -35 273 -35 278 0 4 15 -17 32 -46 34 -55 51 -64 67
-34 7 14 -2 30 -49 82 -32 36 -56 67 -54 69 2 3 25 -6 50 -18 25 -13 48 -21
51 -18 3 4 1 35 -4 72 -5 36 -6 65 -1 65 4 0 8 -5 8 -10 0 -6 7 -13 15 -16 10
-4 35 12 70 45 39 37 62 51 78 49 21 -3 22 -7 19 -68 -2 -36 -14 -137 -28
-225 -39 -246 -35 -285 27 -285 24 0 59 22 59 37 0 29 45 257 61 310 53 172
149 278 199 218 17 -20 9 -118 -25 -295 -41 -216 -36 -270 24 -270 49 0 58 17
81 154 35 208 77 325 141 388 39 39 66 47 87 26 18 -18 15 -58 -13 -182 -56
-253 -48 -335 40 -372 64 -26 127 -14 193 37 22 17 24 17 58 -3 94 -55 277
-63 443 -18 l41 11 0 55 c0 49 -2 55 -17 49 -105 -41 -300 -52 -365 -21 -41
20 -64 62 -53 98 17 51 85 88 167 88 41 0 68 21 68 54 0 32 -19 46 -60 46 -33
0 -76 20 -92 44 -16 23 -8 73 15 93 36 34 63 43 121 43 73 0 86 -14 86 -91 0
-54 2 -61 25 -71 21 -10 30 -8 52 8 33 25 45 65 37 123 -7 57 -53 105 -115
121 -59 16 -172 7 -230 -19 -127 -57 -166 -184 -82 -266 21 -21 30 -35 22 -35
-29 0 -97 -54 -119 -93 -13 -23 -23 -58 -24 -86 -1 -42 -4 -48 -37 -65 -35
-19 -38 -19 -64 -2 -26 17 -27 21 -22 79 2 34 16 116 31 182 41 187 33 270
-30 300 -76 36 -166 3 -225 -83 l-37 -52 -6 36 c-11 54 -25 79 -56 97 -80 48
-189 -8 -253 -128 l-16 -30 1 40 c2 93 -27 135 -94 135 -70 -1 -170 -74 -199
-145 -9 -23 -13 -26 -16 -12 -6 24 -17 22 -58 -14 -20 -18 -38 -30 -40 -27 -3
2 -8 19 -11 36 -6 28 -4 32 14 32 32 0 119 76 151 132 106 185 -20 409 -238
424 -36 3 -72 -2 -100 -12z"/>
<path d="M191 1624 c-68 -18 -109 -43 -155 -94 l-36 -40 0 -153 0 -153 34 -40
c19 -22 59 -53 91 -68 48 -25 68 -29 131 -29 63 1 85 6 137 31 l62 31 22 -21
c32 -30 29 -36 -22 -44 -25 -3 -48 -10 -51 -15 -6 -11 105 -129 121 -129 6 0
17 21 24 48 l13 47 15 -65 c7 -36 16 -75 19 -87 5 -26 41 -32 50 -10 3 8 -5
38 -16 68 l-21 54 124 -124 125 -124 26 19 c30 23 32 31 9 53 -10 10 -65 65
-123 124 l-104 107 52 -20 c66 -25 72 -25 72 3 0 21 -8 26 -69 40 -38 10 -76
17 -86 17 -33 0 -4 18 40 24 25 4 45 13 45 19 0 7 -27 39 -60 72 -67 67 -74
66 -86 -14 l-7 -43 -28 29 -29 28 25 60 c45 110 28 225 -46 309 -73 83 -192
119 -298 90z m-21 -114 c0 -5 -2 -10 -4 -10 -3 0 -8 5 -11 10 -3 6 -1 10 4 10
6 0 11 -4 11 -10z m-43 -21 c-9 -6 -17 -15 -17 -20 0 -6 5 -7 12 -3 7 4 8 3 4
-5 -4 -6 -11 -9 -15 -6 -5 2 -12 -10 -16 -28 -7 -28 -9 -29 -12 -9 -5 24 43
99 55 87 4 -4 -1 -11 -11 -16z m-56 -145 c-5 -16 -10 -21 -10 -12 -1 18 10 51
15 45 2 -1 -1 -16 -5 -33z m13 -79 c5 -22 4 -26 -4 -15 -5 8 -10 24 -10 34 0
26 6 18 14 -19z m336 -58 c0 -2 -10 -12 -22 -23 l-23 -19 19 23 c18 21 26 27
26 19z"/>
</g>
</svg>
